<svg xmlns="http://www.w3.org/2000/svg" xmlns:xlink="http://www.w3.org/1999/xlink" width="488" zoomAndPan="magnify" viewBox="0 0 366 179.999997" height="240" preserveAspectRatio="xMidYMid meet" version="1.0"><defs><g/><clipPath id="7305a2fa81"><path d="M 25.046875 27.789062 L 340 27.789062 L 340 154.539062 L 25.046875 154.539062 Z M 25.046875 27.789062 " clip-rule="nonzero"/></clipPath><clipPath id="0e2460a383"><path d="M 38.546875 27.789062 L 326.546875 27.789062 C 330.128906 27.789062 333.5625 29.210938 336.09375 31.742188 C 338.625 34.277344 340.046875 37.710938 340.046875 41.289062 L 340.046875 141.039062 C 340.046875 144.621094 338.625 148.054688 336.09375 150.585938 C 333.5625 153.117188 330.128906 154.539062 326.546875 154.539062 L 38.546875 154.539062 C 31.089844 154.539062 25.046875 148.496094 25.046875 141.039062 L 25.046875 41.289062 C 25.046875 33.832031 31.089844 27.789062 38.546875 27.789062 Z M 38.546875 27.789062 " clip-rule="nonzero"/></clipPath><clipPath id="d998b77855"><path d="M 25.046875 27.789062 L 340.046875 27.789062 L 340.046875 154.539062 L 25.046875 154.539062 Z M 25.046875 27.789062 " clip-rule="nonzero"/></clipPath><clipPath id="7cd67a9f59"><path d="M 38.546875 27.789062 L 326.546875 27.789062 C 330.128906 27.789062 333.5625 29.210938 336.09375 31.742188 C 338.625 34.277344 340.046875 37.710938 340.046875 41.289062 L 340.046875 141.039062 C 340.046875 144.621094 338.625 148.054688 336.09375 150.585938 C 333.5625 153.117188 330.128906 154.539062 326.546875 154.539062 L 38.546875 154.539062 C 31.089844 154.539062 25.046875 148.496094 25.046875 141.039062 L 25.046875 41.289062 C 25.046875 33.832031 31.089844 27.789062 38.546875 27.789062 Z M 38.546875 27.789062 " clip-rule="nonzero"/></clipPath><clipPath id="0625c6efda"><path d="M 28.796875 31.539062 L 336.578125 31.539062 L 336.578125 115.539062 L 28.796875 115.539062 Z M 28.796875 31.539062 " clip-rule="nonzero"/></clipPath><clipPath id="49a7146952"><path d="M 39.296875 31.539062 L 325.796875 31.539062 C 328.582031 31.539062 331.253906 32.644531 333.222656 34.613281 C 335.191406 36.585938 336.296875 39.253906 336.296875 42.039062 L 336.296875 105.039062 C 336.296875 107.824219 335.191406 110.496094 333.222656 112.464844 C 331.253906 114.433594 328.582031 115.539062 325.796875 115.539062 L 39.296875 115.539062 C 36.511719 115.539062 33.839844 114.433594 31.871094 112.464844 C 29.902344 110.496094 28.796875 107.824219 28.796875 105.039062 L 28.796875 42.039062 C 28.796875 39.253906 29.902344 36.585938 31.871094 34.613281 C 33.839844 32.644531 36.511719 31.539062 39.296875 31.539062 Z M 39.296875 31.539062 " clip-rule="nonzero"/></clipPath></defs><g clip-path="url(#7305a2fa81)"><g clip-path="url(#0e2460a383)"><path fill="#212529" d="M 25.046875 27.789062 L 339.941406 27.789062 L 339.941406 154.539062 L 25.046875 154.539062 Z M 25.046875 27.789062 " fill-opacity="1" fill-rule="nonzero"/></g></g><g clip-path="url(#d998b77855)"><g clip-path="url(#7cd67a9f59)"><path stroke-linecap="butt" transform="matrix(0.75, 0, 0, 0.75, 25.046686, 27.789635)" fill="none" stroke-linejoin="miter" d="M 18.000253 -0.000763703 L 402.000277 -0.000763703 C 406.776318 -0.000763703 411.354444 1.89507 414.729444 5.27007 C 418.104444 8.650278 420.000278 13.228404 420.000278 17.999237 L 420.000278 150.999245 C 420.000278 155.775287 418.104444 160.353413 414.729444 163.728413 C 411.354444 167.103413 406.776318 168.999247 402.000277 168.999247 L 18.000253 168.999247 C 8.057544 168.999247 0.000252187 160.941954 0.000252187 150.999245 L 0.000252187 17.999237 C 0.000252187 8.056528 8.057544 -0.000763703 18.000253 -0.000763703 Z M 18.000253 -0.000763703 " stroke="#212529" stroke-width="10" stroke-opacity="1" stroke-miterlimit="4"/></g></g><g clip-path="url(#0625c6efda)"><g clip-path="url(#49a7146952)"><path fill="#e03131" d="M 28.796875 31.539062 L 336.25 31.539062 L 336.25 115.539062 L 28.796875 115.539062 Z M 28.796875 31.539062 " fill-opacity="1" fill-rule="nonzero"/></g></g><g fill="#ffffff" fill-opacity="1"><g transform="translate(32.939485, 106.939756)"><g><path d="M 50.703125 -46.859375 L 50.703125 -56.96875 L 29.390625 -56.96875 L 29.390625 -41.203125 L 46.5625 -41.203125 L 46.5625 -29.59375 L 29.390625 -29.59375 L 29.390625 -11.609375 L 50.703125 -11.609375 L 50.703125 -21.8125 L 63.734375 -21.8125 L 63.734375 0 L 3.4375 0 L 3.4375 -11.609375 L 11.515625 -11.609375 L 11.515625 -56.96875 L 3.4375 -56.96875 L 3.4375 -68.578125 L 63.734375 -68.578125 L 63.734375 -46.859375 Z M 50.703125 -46.859375 "/></g></g></g><g fill="#ffffff" fill-opacity="1"><g transform="translate(99.796243, 106.939756)"><g><path d="M 39.890625 -68.578125 C 49.921875 -68.578125 57.800781 -66.488281 63.53125 -62.3125 C 68.375 -58.8125 71.820312 -54.550781 73.875 -49.53125 C 75.9375 -44.519531 76.96875 -39.390625 76.96875 -34.140625 C 76.96875 -27.609375 75.601562 -21.75 72.875 -16.5625 C 70.144531 -11.375 66.335938 -7.316406 61.453125 -4.390625 C 56.578125 -1.460938 50.972656 0 44.640625 0 L 3.328125 0 L 3.328125 -11.609375 L 13.734375 -11.609375 L 13.734375 -56.96875 L 3.328125 -56.96875 L 3.328125 -68.578125 Z M 38.78125 -11.609375 C 44.4375 -11.609375 49.113281 -13.394531 52.8125 -16.96875 C 56.519531 -20.539062 58.375 -26.226562 58.375 -34.03125 C 58.375 -41.976562 56.472656 -47.785156 52.671875 -51.453125 C 48.867188 -55.128906 44.035156 -56.96875 38.171875 -56.96875 L 31.609375 -56.96875 L 31.609375 -11.609375 Z M 38.78125 -11.609375 "/></g></g></g><g fill="#ffffff" fill-opacity="1"><g transform="translate(180.286941, 106.939756)"><g><path d="M 4.84375 -34.4375 C 4.84375 -41.238281 6.375 -47.316406 9.4375 -52.671875 C 12.5 -58.023438 16.789062 -62.195312 22.3125 -65.1875 C 27.84375 -68.1875 34.140625 -69.6875 41.203125 -69.6875 C 45.578125 -69.6875 49.648438 -69.097656 53.421875 -67.921875 C 57.191406 -66.742188 60.257812 -65.078125 62.625 -62.921875 L 62.625 -68.578125 L 74.234375 -68.578125 L 74.234375 -44.234375 L 62.625 -44.234375 C 61.539062 -47.734375 59.363281 -50.8125 56.09375 -53.46875 C 52.832031 -56.132812 48.710938 -57.46875 43.734375 -57.46875 C 39.890625 -57.46875 36.46875 -56.539062 33.46875 -54.6875 C 30.476562 -52.832031 28.15625 -50.253906 26.5 -46.953125 C 24.851562 -43.660156 24.03125 -39.859375 24.03125 -35.546875 C 24.03125 -30.160156 24.972656 -25.664062 26.859375 -22.0625 C 28.742188 -18.46875 31.21875 -15.828125 34.28125 -14.140625 C 37.351562 -12.453125 40.671875 -11.609375 44.234375 -11.609375 C 48.273438 -11.609375 51.660156 -12.582031 54.390625 -14.53125 C 57.117188 -16.488281 59.019531 -19.320312 60.09375 -23.03125 L 48.078125 -23.03125 L 48.078125 -34.640625 L 80.1875 -34.640625 L 80.296875 -32.21875 C 80.296875 -22.113281 76.960938 -14.132812 70.296875 -8.28125 C 66.992188 -5.382812 62.96875 -3.128906 58.21875 -1.515625 C 53.476562 0.0976562 48.414062 0.90625 43.03125 0.90625 C 34.882812 0.90625 27.929688 -0.640625 22.171875 -3.734375 C 16.410156 -6.835938 12.082031 -11.0625 9.1875 -16.40625 C 6.289062 -21.757812 4.84375 -27.769531 4.84375 -34.4375 Z M 4.84375 -34.4375 "/></g></g></g><g fill="#ffffff" fill-opacity="1"><g transform="translate(265.019312, 106.939756)"><g><path d="M 50.703125 -46.859375 L 50.703125 -56.96875 L 29.390625 -56.96875 L 29.390625 -41.203125 L 46.5625 -41.203125 L 46.5625 -29.59375 L 29.390625 -29.59375 L 29.390625 -11.609375 L 50.703125 -11.609375 L 50.703125 -21.8125 L 63.734375 -21.8125 L 63.734375 0 L 3.4375 0 L 3.4375 -11.609375 L 11.515625 -11.609375 L 11.515625 -56.96875 L 3.4375 -56.96875 L 3.4375 -68.578125 L 63.734375 -68.578125 L 63.734375 -46.859375 Z M 50.703125 -46.859375 "/></g></g></g><g fill="#ffffff" fill-opacity="1"><g transform="translate(50.465995, 146.439622)"><g><path d="M 16.203125 -24.4375 C 17.566406 -24.4375 18.796875 -24.15625 19.890625 -23.59375 C 20.984375 -23.03125 21.84375 -22.226562 22.46875 -21.1875 C 23.09375 -20.144531 23.40625 -18.953125 23.40625 -17.609375 C 23.40625 -16.160156 23.050781 -14.941406 22.34375 -13.953125 C 21.632812 -12.972656 20.582031 -12.160156 19.1875 -11.515625 L 23.140625 -4.140625 L 26.3125 -4.140625 L 26.3125 0 L 18.859375 0 L 13.359375 -10.734375 L 10.546875 -10.734375 L 10.546875 -4.140625 L 13.609375 -4.140625 L 13.609375 0 L 0.828125 0 L 0.828125 -4.140625 L 4.171875 -4.140625 L 4.171875 -20.296875 L 0.828125 -20.296875 L 0.828125 -24.4375 Z M 13.21875 -14.65625 C 14.289062 -14.65625 15.148438 -14.914062 15.796875 -15.4375 C 16.453125 -15.96875 16.78125 -16.664062 16.78125 -17.53125 C 16.78125 -18.300781 16.519531 -18.953125 16 -19.484375 C 15.488281 -20.023438 14.785156 -20.296875 13.890625 -20.296875 L 10.546875 -20.296875 L 10.546875 -14.65625 Z M 13.21875 -14.65625 "/></g></g></g><g fill="#ffffff" fill-opacity="1"><g transform="translate(82.758067, 146.439622)"><g><path d="M 18.078125 -16.703125 L 18.078125 -20.296875 L 10.46875 -20.296875 L 10.46875 -14.6875 L 16.59375 -14.6875 L 16.59375 -10.546875 L 10.46875 -10.546875 L 10.46875 -4.140625 L 18.078125 -4.140625 L 18.078125 -7.78125 L 22.71875 -7.78125 L 22.71875 0 L 1.21875 0 L 1.21875 -4.140625 L 4.109375 -4.140625 L 4.109375 -20.296875 L 1.21875 -20.296875 L 1.21875 -24.4375 L 22.71875 -24.4375 L 22.71875 -16.703125 Z M 18.078125 -16.703125 "/></g></g></g><g fill="#ffffff" fill-opacity="1"><g transform="translate(112.818141, 146.439622)"><g><path d="M 15.15625 -24.4375 C 16.664062 -24.4375 18.035156 -24.113281 19.265625 -23.46875 C 20.503906 -22.820312 21.488281 -21.910156 22.21875 -20.734375 C 22.957031 -19.554688 23.328125 -18.203125 23.328125 -16.671875 C 23.328125 -14.265625 22.539062 -12.363281 20.96875 -10.96875 C 19.394531 -9.582031 17.300781 -8.890625 14.6875 -8.890625 L 10.546875 -8.890625 L 10.546875 -4.140625 L 13.9375 -4.140625 L 13.9375 0 L 1.109375 0 L 1.109375 -4.140625 L 4.171875 -4.140625 L 4.171875 -20.296875 L 1.109375 -20.296875 L 1.109375 -24.4375 Z M 12.453125 -13.03125 C 15.191406 -13.03125 16.5625 -14.226562 16.5625 -16.625 C 16.5625 -17.800781 16.207031 -18.707031 15.5 -19.34375 C 14.789062 -19.976562 13.976562 -20.296875 13.0625 -20.296875 L 10.546875 -20.296875 L 10.546875 -13.03125 Z M 12.453125 -13.03125 "/></g></g></g><g fill="#ffffff" fill-opacity="1"><g transform="translate(142.878215, 146.439622)"><g><path d="M 9.75 -20.296875 L 9.75 -7.734375 C 9.75 -6.390625 10.019531 -5.40625 10.5625 -4.78125 C 11.101562 -4.164062 11.890625 -3.859375 12.921875 -3.859375 C 14.023438 -3.859375 14.863281 -4.175781 15.4375 -4.8125 C 16.019531 -5.445312 16.3125 -6.363281 16.3125 -7.5625 L 16.3125 -20.296875 L 14.296875 -20.296875 L 14.296875 -24.4375 L 23.71875 -24.4375 L 23.71875 -20.296875 L 20.65625 -20.296875 L 20.65625 -6.484375 C 20.65625 -4.367188 19.910156 -2.710938 18.421875 -1.515625 C 16.941406 -0.316406 14.878906 0.28125 12.234375 0.28125 C 9.140625 0.28125 6.890625 -0.414062 5.484375 -1.8125 C 4.085938 -3.21875 3.390625 -5.070312 3.390625 -7.375 L 3.390625 -20.296875 L 0.5 -20.296875 L 0.5 -24.4375 L 11.875 -24.4375 L 11.875 -20.296875 Z M 9.75 -20.296875 "/></g></g></g><g fill="#ffffff" fill-opacity="1"><g transform="translate(173.298286, 146.439622)"><g><path d="M 18.078125 -16.703125 L 18.078125 -20.296875 L 10.46875 -20.296875 L 10.46875 -14.6875 L 16.59375 -14.6875 L 16.59375 -10.546875 L 10.46875 -10.546875 L 10.46875 -4.140625 L 18.078125 -4.140625 L 18.078125 -7.78125 L 22.71875 -7.78125 L 22.71875 0 L 1.21875 0 L 1.21875 -4.140625 L 4.109375 -4.140625 L 4.109375 -20.296875 L 1.21875 -20.296875 L 1.21875 -24.4375 L 22.71875 -24.4375 L 22.71875 -16.703125 Z M 18.078125 -16.703125 "/></g></g></g><g fill="#ffffff" fill-opacity="1"><g transform="translate(203.358366, 146.439622)"><g><path d="M 1.328125 -18.03125 C 1.328125 -19.476562 1.640625 -20.703125 2.265625 -21.703125 C 2.890625 -22.710938 3.707031 -23.460938 4.71875 -23.953125 C 5.726562 -24.453125 6.796875 -24.703125 7.921875 -24.703125 C 9.890625 -24.703125 11.378906 -23.941406 12.390625 -22.421875 L 12.453125 -22.421875 L 12.453125 -24.4375 L 16.5625 -24.4375 L 16.5625 -17.03125 L 12.453125 -17.03125 C 12.285156 -18.101562 11.898438 -18.96875 11.296875 -19.625 C 10.703125 -20.289062 9.910156 -20.625 8.921875 -20.625 C 8.234375 -20.625 7.660156 -20.4375 7.203125 -20.0625 C 6.742188 -19.695312 6.515625 -19.222656 6.515625 -18.640625 C 6.515625 -17.921875 6.847656 -17.328125 7.515625 -16.859375 C 8.191406 -16.390625 9.25 -15.847656 10.6875 -15.234375 C 12.15625 -14.578125 13.375 -13.9375 14.34375 -13.3125 C 15.3125 -12.695312 16.125 -11.863281 16.78125 -10.8125 C 17.445312 -9.769531 17.78125 -8.484375 17.78125 -6.953125 C 17.78125 -5.296875 17.429688 -3.921875 16.734375 -2.828125 C 16.046875 -1.734375 15.164062 -0.929688 14.09375 -0.421875 C 13.019531 0.078125 11.882812 0.328125 10.6875 0.328125 C 8.53125 0.328125 6.898438 -0.460938 5.796875 -2.046875 L 5.71875 -2.046875 L 5.71875 0 L 1.578125 0 L 1.578125 -8.3125 L 5.71875 -8.3125 L 5.71875 -8.140625 C 5.75 -6.816406 6.128906 -5.773438 6.859375 -5.015625 C 7.585938 -4.265625 8.457031 -3.890625 9.46875 -3.890625 C 10.207031 -3.890625 10.84375 -4.140625 11.375 -4.640625 C 11.90625 -5.148438 12.171875 -5.773438 12.171875 -6.515625 C 12.171875 -7.117188 11.976562 -7.648438 11.59375 -8.109375 C 11.207031 -8.578125 10.734375 -8.976562 10.171875 -9.3125 C 9.609375 -9.65625 8.8125 -10.078125 7.78125 -10.578125 C 6.382812 -11.253906 5.257812 -11.875 4.40625 -12.4375 C 3.550781 -13 2.820312 -13.742188 2.21875 -14.671875 C 1.625 -15.597656 1.328125 -16.71875 1.328125 -18.03125 Z M 1.328125 -18.03125 "/></g></g></g><g fill="#ffffff" fill-opacity="1"><g transform="translate(228.522435, 146.439622)"><g><path d="M 19.046875 -14.609375 L 19.046875 -20.296875 L 15.375 -20.296875 L 15.375 -4.140625 L 19.046875 -4.140625 L 19.046875 0 L 5.328125 0 L 5.328125 -4.140625 L 9 -4.140625 L 9 -20.296875 L 5.328125 -20.296875 L 5.328125 -14.609375 L 1.078125 -14.609375 L 1.078125 -24.4375 L 23.296875 -24.4375 L 23.296875 -14.609375 Z M 19.046875 -14.609375 "/></g></g></g><g fill="#ffffff" fill-opacity="1"><g transform="translate(258.942499, 146.439622)"><g><path d="M 1.796875 -12.234375 C 1.796875 -14.492188 2.316406 -16.578125 3.359375 -18.484375 C 4.410156 -20.390625 5.953125 -21.925781 7.984375 -23.09375 C 10.023438 -24.257812 12.488281 -24.84375 15.375 -24.84375 C 18.28125 -24.84375 20.75 -24.257812 22.78125 -23.09375 C 24.820312 -21.925781 26.363281 -20.390625 27.40625 -18.484375 C 28.457031 -16.578125 28.984375 -14.492188 28.984375 -12.234375 C 28.984375 -10.023438 28.46875 -7.96875 27.4375 -6.0625 C 26.40625 -4.15625 24.863281 -2.613281 22.8125 -1.4375 C 20.757812 -0.257812 18.28125 0.328125 15.375 0.328125 C 12.46875 0.328125 9.992188 -0.253906 7.953125 -1.421875 C 5.910156 -2.585938 4.375 -4.128906 3.34375 -6.046875 C 2.3125 -7.960938 1.796875 -10.023438 1.796875 -12.234375 Z M 15.34375 -20.375 C 14.164062 -20.375 13.066406 -20.070312 12.046875 -19.46875 C 11.023438 -18.875 10.203125 -17.957031 9.578125 -16.71875 C 8.953125 -15.488281 8.640625 -13.957031 8.640625 -12.125 C 8.640625 -10.570312 8.921875 -9.1875 9.484375 -7.96875 C 10.046875 -6.757812 10.84375 -5.816406 11.875 -5.140625 C 12.90625 -4.472656 14.070312 -4.140625 15.375 -4.140625 C 16.550781 -4.140625 17.65625 -4.4375 18.6875 -5.03125 C 19.71875 -5.632812 20.550781 -6.546875 21.1875 -7.765625 C 21.820312 -8.992188 22.140625 -10.5 22.140625 -12.28125 C 22.140625 -13.882812 21.847656 -15.296875 21.265625 -16.515625 C 20.691406 -17.742188 19.890625 -18.691406 18.859375 -19.359375 C 17.828125 -20.035156 16.65625 -20.375 15.34375 -20.375 Z M 15.34375 -20.375 "/></g></g></g><g fill="#ffffff" fill-opacity="1"><g transform="translate(295.734589, 146.439622)"><g><path d="M 1.328125 -18.03125 C 1.328125 -19.476562 1.640625 -20.703125 2.265625 -21.703125 C 2.890625 -22.710938 3.707031 -23.460938 4.71875 -23.953125 C 5.726562 -24.453125 6.796875 -24.703125 7.921875 -24.703125 C 9.890625 -24.703125 11.378906 -23.941406 12.390625 -22.421875 L 12.453125 -22.421875 L 12.453125 -24.4375 L 16.5625 -24.4375 L 16.5625 -17.03125 L 12.453125 -17.03125 C 12.285156 -18.101562 11.898438 -18.96875 11.296875 -19.625 C 10.703125 -20.289062 9.910156 -20.625 8.921875 -20.625 C 8.234375 -20.625 7.660156 -20.4375 7.203125 -20.0625 C 6.742188 -19.695312 6.515625 -19.222656 6.515625 -18.640625 C 6.515625 -17.921875 6.847656 -17.328125 7.515625 -16.859375 C 8.191406 -16.390625 9.25 -15.847656 10.6875 -15.234375 C 12.15625 -14.578125 13.375 -13.9375 14.34375 -13.3125 C 15.3125 -12.695312 16.125 -11.863281 16.78125 -10.8125 C 17.445312 -9.769531 17.78125 -8.484375 17.78125 -6.953125 C 17.78125 -5.296875 17.429688 -3.921875 16.734375 -2.828125 C 16.046875 -1.734375 15.164062 -0.929688 14.09375 -0.421875 C 13.019531 0.078125 11.882812 0.328125 10.6875 0.328125 C 8.53125 0.328125 6.898438 -0.460938 5.796875 -2.046875 L 5.71875 -2.046875 L 5.71875 0 L 1.578125 0 L 1.578125 -8.3125 L 5.71875 -8.3125 L 5.71875 -8.140625 C 5.75 -6.816406 6.128906 -5.773438 6.859375 -5.015625 C 7.585938 -4.265625 8.457031 -3.890625 9.46875 -3.890625 C 10.207031 -3.890625 10.84375 -4.140625 11.375 -4.640625 C 11.90625 -5.148438 12.171875 -5.773438 12.171875 -6.515625 C 12.171875 -7.117188 11.976562 -7.648438 11.59375 -8.109375 C 11.207031 -8.578125 10.734375 -8.976562 10.171875 -9.3125 C 9.609375 -9.65625 8.8125 -10.078125 7.78125 -10.578125 C 6.382812 -11.253906 5.257812 -11.875 4.40625 -12.4375 C 3.550781 -13 2.820312 -13.742188 2.21875 -14.671875 C 1.625 -15.597656 1.328125 -16.71875 1.328125 -18.03125 Z M 1.328125 -18.03125 "/></g></g></g></svg>