<?xml version="1.0" encoding="UTF-8" standalone="no"?>
<svg
   width="394.96353"
   zoomAndPan="magnify"
   viewBox="0 0 296.22265 130.15625"
   height="173.54167"
   preserveAspectRatio="xMidYMid"
   version="1.0"
   id="svg54"
   xmlns="http://www.w3.org/2000/svg"
   xmlns:svg="http://www.w3.org/2000/svg">
  <defs
     id="defs6">
    <clipPath
       id="dcdfcaac36">
      <path
         d="M 42.199219,43.488281 H 338.61719 V 173.64453 H 42.199219 Z m 0,0"
         clip-rule="nonzero"
         id="path1" />
    </clipPath>
    <clipPath
       id="9904fef96f">
      <path
         d="m 58.65625,43.488281 h 263.30859 c 9.08985,0 16.45703,7.367188 16.45703,16.453125 V 157.1875 c 0,9.08984 -7.36718,16.45703 -16.45703,16.45703 H 58.65625 c -9.089844,0 -16.457031,-7.36719 -16.457031,-16.45703 V 59.941406 c 0,-9.085937 7.367187,-16.453125 16.457031,-16.453125 z m 0,0"
         clip-rule="nonzero"
         id="path2" />
    </clipPath>
    <clipPath
       id="c43ad20913">
      <path
         d="M 42.199219,43.488281 H 338.42187 V 173.64453 H 42.199219 Z m 0,0"
         clip-rule="nonzero"
         id="path3" />
    </clipPath>
    <clipPath
       id="4ee74152ec">
      <path
         d="m 58.65625,43.488281 h 263.30859 c 9.08985,0 16.45703,7.367188 16.45703,16.453125 V 157.1875 c 0,9.08984 -7.36718,16.45703 -16.45703,16.45703 H 58.65625 c -9.089844,0 -16.457031,-7.36719 -16.457031,-16.45703 V 59.941406 c 0,-9.085937 7.367187,-16.453125 16.457031,-16.453125 z m 0,0"
         clip-rule="nonzero"
         id="path4" />
    </clipPath>
    <clipPath
       id="9f3f2bc130">
      <path
         d="M 49.679688,50.96875 H 331 V 133.25 H 49.679688 Z m 0,0"
         clip-rule="nonzero"
         id="path5" />
    </clipPath>
    <clipPath
       id="4b691ca99d">
      <path
         d="M 57.910156,50.96875 H 322.71484 c 2.17969,0 4.27344,0.863281 5.81641,2.40625 1.54297,1.546875 2.41016,3.636719 2.41016,5.820312 v 65.828128 c 0,2.17969 -0.86719,4.27343 -2.41016,5.8164 -1.54297,1.54297 -3.63672,2.41016 -5.81641,2.41016 H 57.910156 c -2.183594,0 -4.277344,-0.86719 -5.820312,-2.41016 -1.542969,-1.54297 -2.410156,-3.63671 -2.410156,-5.8164 V 59.195312 c 0,-2.183593 0.867187,-4.273437 2.410156,-5.820312 1.542968,-1.542969 3.636718,-2.40625 5.820312,-2.40625 z m 0,0"
         clip-rule="nonzero"
         id="path6" />
    </clipPath>
  </defs>
  <g
     id="g55"
     transform="translate(-0.66190645,-0.69226267)">
    <g
       clip-path="url(#dcdfcaac36)"
       id="g8"
       transform="translate(-41.537313,-42.796019)">
      <g
         clip-path="url(#9904fef96f)"
         id="g7">
        <path
           fill="#212529"
           d="M 42.199219,43.488281 H 338.61719 V 173.64453 H 42.199219 Z m 0,0"
           fill-opacity="1"
           fill-rule="nonzero"
           id="path7" />
      </g>
    </g>
    <g
       clip-path="url(#c43ad20913)"
       id="g10"
       transform="translate(-41.537313,-42.796019)">
      <g
         clip-path="url(#4ee74152ec)"
         id="g9">
        <path
           stroke-linecap="butt"
           transform="matrix(0.748037,0,0,0.748037,42.200349,43.486438)"
           fill="none"
           stroke-linejoin="miter"
           d="M 21.998791,0.00246352 H 373.99841 c 12.1516,0 22.0003,9.84869948 22.0003,21.99508048 V 151.99933 c 0,12.1516 -9.8487,22.0003 -22.0003,22.0003 H 21.998791 c -12.151603,0 -22.00030182,-9.8487 -22.00030182,-22.0003 V 21.997544 c 0,-12.146381 9.84869882,-21.99508048 22.00030182,-21.99508048 z m 0,0"
           stroke="#212529"
           stroke-width="10"
           stroke-opacity="1"
           stroke-miterlimit="4"
           id="path8" />
      </g>
    </g>
    <g
       clip-path="url(#9f3f2bc130)"
       id="g12"
       transform="translate(-41.537313,-42.796019)">
      <g
         clip-path="url(#4b691ca99d)"
         id="g11">
        <path
           fill="#e03131"
           d="M 49.679688,50.96875 H 330.92578 V 133.25 H 49.679688 Z m 0,0"
           fill-opacity="1"
           fill-rule="nonzero"
           id="path10" />
      </g>
    </g>
    <g
       fill="#ffffff"
       fill-opacity="1"
       id="g15"
       transform="translate(-41.537313,-42.796019)">
      <g
         transform="translate(58.283135,125.01008)"
         id="g14">
        <g
           id="g13">
          <path
             d="M 54.1875,0 V -12.390625 H 20.953125 V -28 h 32.53125 V -40.296875 H 20.953125 V -54.90625 H 54.1875 V -67.1875 H 6.65625 V 0 Z m 0,0"
             id="path12" />
        </g>
      </g>
    </g>
    <g
       fill="#ffffff"
       fill-opacity="1"
       id="g18"
       transform="translate(-41.537313,-42.796019)">
      <g
         transform="translate(117.00742,125.01008)"
         id="g17">
        <g
           id="g16">
          <path
             d="m 33.140625,0 c 21.046875,0 35.65625,-13.296875 35.65625,-33.546875 0,-20.25 -14.609375,-33.640625 -35.65625,-33.640625 H 6.65625 V 0 Z m -12.1875,-54.59375 h 12.1875 c 13.796875,0 21.046875,9.15625 21.046875,21.046875 0,11.390625 -7.75,20.953125 -21.046875,20.953125 h -12.1875 z m 0,0"
             id="path15" />
        </g>
      </g>
    </g>
    <g
       fill="#ffffff"
       fill-opacity="1"
       id="g21"
       transform="translate(-41.537313,-42.796019)">
      <g
         transform="translate(189.32995,125.01008)"
         id="g20">
        <g
           id="g19">
          <path
             d="m 3.421875,-33.546875 c 0,21.15625 16.125,34.859375 35.765625,34.859375 12.1875,0 21.75,-5.046875 28.609375,-12.703125 V -37.0625 h -32.03125 v 12.28125 H 53.6875 v 8.15625 c -2.921875,2.625 -8.359375,5.140625 -14.5,5.140625 -12.1875,0 -21.0625,-9.375 -21.0625,-22.0625 0,-12.6875 8.875,-22.0625 21.0625,-22.0625 7.046875,0 12.796875,3.734375 15.921875,8.46875 l 11.875,-6.453125 C 61.84375,-61.546875 53.09375,-68.296875 39.1875,-68.296875 c -19.640625,0 -35.765625,13.5 -35.765625,34.75 z m 0,0"
             id="path18" />
        </g>
      </g>
    </g>
    <g
       fill="#ffffff"
       fill-opacity="1"
       id="g24"
       transform="translate(-41.537313,-42.796019)">
      <g
         transform="translate(261.85394,125.01008)"
         id="g23">
        <g
           id="g22">
          <path
             d="M 54.1875,0 V -12.390625 H 20.953125 V -28 h 32.53125 V -40.296875 H 20.953125 V -54.90625 H 54.1875 V -67.1875 H 6.65625 V 0 Z m 0,0"
             id="path21" />
        </g>
      </g>
    </g>
    <g
       fill="#ffffff"
       fill-opacity="1"
       id="g30"
       transform="translate(-41.537313,-42.796019)">
      <g
         transform="translate(62.43911,165.36652)"
         id="g29">
        <g
           id="g28">
          <path
             d="m 22.96875,0 -5.6875,-9.625 c 2.71875,-0.640625 5.53125,-3.03125 5.53125,-7.5 0,-4.703125 -3.21875,-8.140625 -8.484375,-8.140625 H 2.5 V 0 h 5.375 v -9.0625 h 3.953125 L 16.78125,0 Z M 17.3125,-17.171875 c 0,2.125 -1.625,3.5 -3.78125,3.5 H 7.875 v -6.984375 h 5.65625 c 2.15625,0 3.78125,1.375 3.78125,3.484375 z m 0,0"
             id="path27" />
        </g>
      </g>
    </g>
    <g
       fill="#ffffff"
       fill-opacity="1"
       id="g33"
       transform="translate(-41.537313,-42.796019)">
      <g
         transform="translate(91.731244,165.36652)"
         id="g32">
        <g
           id="g31">
          <path
             d="M 20.390625,0 V -4.65625 H 7.875 v -5.875 h 12.25 v -4.625 H 7.875 v -5.5 h 12.515625 v -4.609375 H 2.5 V 0 Z m 0,0"
             id="path30" />
        </g>
      </g>
    </g>
    <g
       fill="#ffffff"
       fill-opacity="1"
       id="g36"
       transform="translate(-41.537313,-42.796019)">
      <g
         transform="translate(118.74982,165.36652)"
         id="g35">
        <g
           id="g34">
          <path
             d="m 7.875,0 v -9.0625 h 6.453125 c 5.453125,0 8.484375,-3.671875 8.484375,-8.0625 0,-4.4375 -3,-8.140625 -8.484375,-8.140625 H 2.5 V 0 Z m 9.4375,-17.171875 c 0,2.125 -1.59375,3.5 -3.703125,3.5 H 7.875 v -6.984375 h 5.734375 c 2.109375,0 3.703125,1.40625 3.703125,3.484375 z m 0,0"
             id="path33" />
        </g>
      </g>
    </g>
    <g
       fill="#ffffff"
       fill-opacity="1"
       id="g39"
       transform="translate(-41.537313,-42.796019)">
      <g
         transform="translate(147.322,165.36652)"
         id="g38">
        <g
           id="g37">
          <path
             d="m 2.5,-10.078125 c 0,6.21875 3.59375,10.53125 11.328125,10.53125 7.65625,0 11.25,-4.28125 11.25,-10.5625 v -15.15625 H 19.625 v 15 c 0,3.515625 -1.9375,5.953125 -5.796875,5.953125 -3.9375,0 -5.875,-2.4375 -5.875,-5.953125 v -15 H 2.5 Z m 0,0"
             id="path36" />
        </g>
      </g>
    </g>
    <g
       fill="#ffffff"
       fill-opacity="1"
       id="g42"
       transform="translate(-41.537313,-42.796019)">
      <g
         transform="translate(179.83503,165.36652)"
         id="g41">
        <g
           id="g40">
          <path
             d="M 20.390625,0 V -4.65625 H 7.875 v -5.875 h 12.25 v -4.625 H 7.875 v -5.5 h 12.515625 v -4.609375 H 2.5 V 0 Z m 0,0"
             id="path39" />
        </g>
      </g>
    </g>
    <g
       fill="#ffffff"
       fill-opacity="1"
       id="g45"
       transform="translate(-41.537313,-42.796019)">
      <g
         transform="translate(206.8536,165.36652)"
         id="g44">
        <g
           id="g43">
          <path
             d="m 0.765625,-3.5625 c 2.375,2.390625 5.859375,4.015625 10.71875,4.015625 6.8125,0 10.109375,-3.484375 10.109375,-8.109375 0,-5.609375 -5.296875,-6.859375 -9.46875,-7.796875 -2.921875,-0.6875 -5.046875,-1.21875 -5.046875,-2.921875 0,-1.515625 1.296875,-2.578125 3.71875,-2.578125 2.46875,0 5.1875,0.875 7.234375,2.765625 l 3,-3.9375 c -2.5,-2.3125 -5.84375,-3.53125 -9.859375,-3.53125 -5.9375,0 -9.578125,3.421875 -9.578125,7.625 0,5.640625 5.296875,6.78125 9.4375,7.71875 2.90625,0.6875 5.109375,1.328125 5.109375,3.234375 0,1.4375 -1.4375,2.828125 -4.390625,2.828125 -3.484375,0 -6.25,-1.546875 -8.03125,-3.40625 z m 0,0"
             id="path42" />
        </g>
      </g>
    </g>
    <g
       fill="#ffffff"
       fill-opacity="1"
       id="g48"
       transform="translate(-41.537313,-42.796019)">
      <g
         transform="translate(234.25109,165.36652)"
         id="g47">
        <g
           id="g46">
          <path
             d="m 13.75,0 v -20.53125 h 7.359375 v -4.734375 H 0.953125 v 4.734375 H 8.34375 V 0 Z m 0,0"
             id="path45" />
        </g>
      </g>
    </g>
    <g
       fill="#ffffff"
       fill-opacity="1"
       id="g51"
       transform="translate(-41.537313,-42.796019)">
      <g
         transform="translate(260.32228,165.36652)"
         id="g50">
        <g
           id="g49">
          <path
             d="m 1.28125,-12.625 c 0,7.625 5.578125,13.078125 13.1875,13.078125 7.65625,0 13.234375,-5.453125 13.234375,-13.078125 0,-7.609375 -5.578125,-13.0625 -13.234375,-13.0625 -7.609375,0 -13.1875,5.453125 -13.1875,13.0625 z m 20.890625,0 c 0,4.703125 -3.03125,8.3125 -7.703125,8.3125 -4.65625,0 -7.640625,-3.609375 -7.640625,-8.3125 0,-4.734375 2.984375,-8.296875 7.640625,-8.296875 4.671875,0 7.703125,3.5625 7.703125,8.296875 z m 0,0"
             id="path48" />
        </g>
      </g>
    </g>
    <g
       fill="#ffffff"
       fill-opacity="1"
       id="g54"
       transform="translate(-41.537313,-42.796019)">
      <g
         transform="translate(294.23734,165.36652)"
         id="g53">
        <g
           id="g52">
          <path
             d="m 0.765625,-3.5625 c 2.375,2.390625 5.859375,4.015625 10.71875,4.015625 6.8125,0 10.109375,-3.484375 10.109375,-8.109375 0,-5.609375 -5.296875,-6.859375 -9.46875,-7.796875 -2.921875,-0.6875 -5.046875,-1.21875 -5.046875,-2.921875 0,-1.515625 1.296875,-2.578125 3.71875,-2.578125 2.46875,0 5.1875,0.875 7.234375,2.765625 l 3,-3.9375 c -2.5,-2.3125 -5.84375,-3.53125 -9.859375,-3.53125 -5.9375,0 -9.578125,3.421875 -9.578125,7.625 0,5.640625 5.296875,6.78125 9.4375,7.71875 2.90625,0.6875 5.109375,1.328125 5.109375,3.234375 0,1.4375 -1.4375,2.828125 -4.390625,2.828125 -3.484375,0 -6.25,-1.546875 -8.03125,-3.40625 z m 0,0"
             id="path51" />
        </g>
      </g>
    </g>
  </g>
</svg>
